#!OML:ASF I:\Actors\actors\Patient Classification 2\Patient 1\Session 1\actor1.ASF
:FULLY-SPECIFIED
:DEGREES
190
root -0.305468 18.2446 4.81454 2.02147 6.75643 -2.66736
lowerback 19.2826 0.0981176 4.93718
upperback 1.26859 1.88982 6.6584
thorax -9.55051 0.861134 3.98791
lowerneck -16.7449 -4.4193 -4.14342
upperneck 22.2662 -4.24071 -3.09799
head 9.87903 -2.66325 -0.959779
rclavicle 5.56597e-015 5.88403e-014
rhumerus -27.1129 1.19619 -46.6921
rradius 138.621
rwrist -2.00261
rhand -16.1554 -10.4578
rfingers 7.12502
rthumb 10.0503 -40.1978
lclavicle 5.56597e-015 5.88403e-014
lhumerus 19.7928 -32.6425 71.3493
lradius 106.3
lwrist 32.2665
lhand -15.6139 -32.9974
lfingers 7.12502
lthumb 10.5726 -3.28329
rfemur -7.71863 -8.36436 14.5682
rtibia 23.3968
rfoot -21.3256 -5.60365
rtoes -20.0806
lfemur -19.8678 -0.485467 -11.8364
ltibia 39.4072
lfoot -21.869 3.12319
ltoes -55.4399
191
root -0.324115 18.2602 4.82109 2.37875 7.80549 -2.89323
lowerback 19.0503 -0.111623 4.81528
upperback 1.22012 1.59959 6.91631
thorax -9.47759 0.737745 4.423
lowerneck -17.1617 -4.50484 -4.71412
upperneck 22.0643 -4.2587 -2.77201
head 9.91024 -2.67993 -0.762932
rclavicle 4.37326e-015 6.36111e-014
rhumerus -26.7916 0.903688 -46.4898
rradius 139.569
rwrist -2.00703
rhand -15.7478 -10.5711
rfingers 7.12502
rthumb 10.4434 -40.2917
lclavicle 4.37326e-015 6.36111e-014
lhumerus 20.1045 -32.6647 70.9673
lradius 106.848
lwrist 32.5547
lhand -15.6475 -32.6005
lfingers 7.12502
lthumb 10.5402 -2.88475
rfemur -7.65414 -8.7644 14.9737
rtibia 22.8486
rfoot -21.5983 -6.19003
rtoes -19.8881
lfemur -20.3599 -1.25123 -11.4814
ltibia 39.0596
lfoot -21.455 2.92261
ltoes -55.3022
192
root -0.357401 18.2896 4.82896 2.81887 9.24663 -3.05775
lowerback 18.7952 -0.182245 4.74809
upperback 1.01611 1.49262 6.93662
thorax -9.56038 0.69205 4.51535
lowerneck -17.2978 -4.89536 -5.11236
upperneck 21.908 -4.82579 -2.19962
head 9.91129 -2.90487 -0.577364
rclavicle 9.93923e-015 -6.36111e-015
rhumerus -27.2488 0.019772 -46.2041
rradius 140.686
rwrist -2.16646
rhand -15.168 -10.6263
rfingers 7.12502
rthumb 11.0028 -40.3179
lclavicle 9.93923e-015 -6.36111e-015
lhumerus 20.6798 -33.5854 70.4961
lradius 107.344
lwrist 32.8524
lhand -15.4393 -32.2736
lfingers 7.12502
lthumb 10.741 -2.56821
rfemur -7.45783 -9.31913 15.393
rtibia 21.9723
rfoot -21.8659 -6.99783
rtoes -19.3603
lfemur -20.9383 -2.18959 -11.1285
ltibia 38.4858
lfoot -20.8793 2.70497
ltoes -55.3213
193
root -0.403741 18.3324 4.83501 3.26692 10.9876 -3.17584
lowerback 18.6279 -0.259257 4.6254
upperback 0.864704 1.36604 6.92134
thorax -9.63194 0.638913 4.60443
lowerneck -17.8383 -5.43286 -5.92273
upperneck 21.9669 -5.55538 -1.18649
head 10.102 -3.18767 -0.212026
rclavicle 1.03368e-014 1.90833e-014
rhumerus -27.4709 -1.05145 -45.7147
rradius 141.718
rwrist -2.54417
rhand -14.4998 -9.95313
rfingers 7.12502
rthumb 11.6472 -39.6094
lclavicle 1.03368e-014 1.90833e-014
lhumerus 21.5358 -34.6902 70.0357
lradius 107.647
lwrist 32.8883
lhand -15.4416 -32.3069
lfingers 7.12502
lthumb 10.7388 -2.60139
rfemur -7.09269 -9.94395 15.826
rtibia 20.7789
rfoot -22.1773 -7.94747
rtoes -18.4838
lfemur -21.5245 -3.29906 -10.7486
ltibia 37.7168
lfoot -20.1344 2.44398
ltoes -55.3601
194
root -0.457388 18.3847 4.83613 3.70038 12.8248 -3.28403
lowerback 18.6309 -0.132317 4.78846
upperback 0.529828 1.56144 6.53899
thorax -9.99868 0.712377 4.04296
lowerneck -17.6205 -6.25851 -6.44988
upperneck 21.7238 -6.92228 0.210589
head 10.0797 -3.69146 0.174349
rclavicle -1.98785e-015 -1.59028e-014
rhumerus -28.4258 -3.02797 -45.0085
rradius 143.004
rwrist -2.7483
rhand -12.9396 -10.1337
rfingers 7.12502
rthumb 13.1514 -39.6989
lclavicle -1.98785e-015 -1.59028e-014
lhumerus 22.6032 -36.8522 69.3795
lradius 107.817
lwrist 32.9591
lhand -15.5693 -32.3043
lfingers 7.12502
lthumb 10.6156 -2.59239
rfemur -6.64444 -10.5415 16.2785
rtibia 19.3597
rfoot -22.444 -8.95116
rtoes -17.1972
lfemur -22.0602 -4.53008 -10.3292
ltibia 36.8002
lfoot -19.2687 2.18783
ltoes -55.2799
195
root -0.51551 18.4419 4.83038 4.10174 14.4448 -3.28676
lowerback 18.7331 0.0624958 4.85369
upperback 0.327259 1.81762 6.12949
thorax -10.2734 0.815923 3.4867
lowerneck -17.1769 -7.16554 -7.39519
upperneck 20.9868 -8.41706 2.12133
head 9.9211 -4.23352 0.794988
rclavicle 2.46493e-014 3.81667e-014
rhumerus -27.0009 -5.4663 -43.4854
rradius 143.066
rwrist -3.2021
rhand -9.17922 -9.29333
rfingers 7.12502
rthumb 16.7739 -38.5887
lclavicle 2.46493e-014 3.81667e-014
lhumerus 23.8308 -38.8161 68.7568
lradius 107.808
lwrist 33.155
lhand -15.7398 -32.2224
lfingers 7.12502
lthumb 10.4512 -2.50216
rfemur -6.21984 -10.8457 16.6308
rtibia 17.8976
rfoot -22.6573 -10.0047
rtoes -15.174
lfemur -22.4617 -5.84422 -10.0073
ltibia 35.7909
lfoot -18.5345 2.28311
ltoes -55.2132
196
root -0.577529 18.4989 4.81725 4.45752 15.5166 -3.12159
lowerback 18.7897 0.455514 4.68132
upperback 0.338343 2.24946 5.6372
thorax -10.2854 1.01232 2.91781
lowerneck -16.5159 -8.11349 -8.42289
upperneck 19.9075 -10.0313 4.42046
head 9.6869 -4.80965 1.54523
rclavicle 1.86858e-014 -3.18055e-015
rhumerus -22.6058 -7.37955 -41.9045
rradius 140.548
rwrist -2.41956
rhand -7.86211 -8.71864
rfingers 7.12502
rthumb 18.0415 -37.9019
lclavicle 1.86858e-014 -3.18055e-015
lhumerus 25.3031 -40.5865 68.0691
lradius 107.583
lwrist 33.434
lhand -15.8211 -32.1533
lfingers 7.12502
lthumb 10.3727 -2.42915
rfemur -5.93983 -10.5595 16.7947
rtibia 16.639
rfoot -22.8797 -11.0296
rtoes -12.3472
lfemur -22.6509 -6.88993 -9.88268
ltibia 34.7516
lfoot -17.9443 2.72739
ltoes -55.2293
197
root -0.634326 18.5485 4.80023 4.74489 15.7022 -2.71291
lowerback 18.8642 1.12623 4.15438
upperback 0.454341 2.95096 5.04865
thorax -10.1986 1.35144 2.37012
lowerneck -15.9056 -8.99899 -9.02053
upperneck 19.1712 -11.5582 6.27042
head 9.58262 -5.37582 2.07036
rclavicle -6.48038e-014 -3.02153e-014
rhumerus -15.2956 -8.03032 -40.3114
rradius 135.352
rwrist -3.16699
rhand -6.97025 -10.3219
rfingers 7.12502
rthumb 18.8994 -39.4237
lclavicle -6.48038e-014 -3.02153e-014
lhumerus 26.4859 -42.154 67.6694
lradius 107.302
lwrist 33.6197
lhand -15.5213 -32.1545
lfingers 7.12502
lthumb 10.6619 -2.445
rfemur -5.85833 -9.64879 16.5924
rtibia 15.7814
rfoot -22.9294 -11.7811
rtoes -9.50542
lfemur -22.4613 -7.28823 -10.117
ltibia 33.7545
lfoot -17.5787 3.23707
ltoes -55.2524
198
root -0.677168 18.5857 4.78324 4.96196 14.7896 -2.01378
lowerback 18.8049 1.89768 3.94681
upperback 0.702564 3.77202 3.90459
thorax -9.82358 1.71938 1.00917
lowerneck -15.631 -9.68176 -8.7168
upperneck 19.0911 -12.8654 7.38147
head 9.67381 -5.8463 2.21245
rclavicle -3.57812e-014 4.92986e-014
rhumerus -6.86173 -7.92992 -39.2938
rradius 127.975
rwrist -5.35292
rhand -10.9268 -9.19955
rfingers 7.12502
rthumb 15.091 -38.6294
lclavicle -3.57812e-014 4.92986e-014
lhumerus 27.4907 -43.4713 66.7344
lradius 107.151
lwrist 33.74
lhand -15.3252 -32.3441
lfingers 7.12502
lthumb 10.8511 -2.64442
rfemur -5.98755 -8.34739 15.9173
rtibia 15.3947
rfoot -22.5049 -12.061
rtoes -7.8784
lfemur -21.824 -6.97472 -10.8069
ltibia 32.86
lfoot -17.5618 3.87911
ltoes -55.1051
199
root -0.704884 18.6088 4.77001 5.11726 12.9272 -1.09018
lowerback 18.5577 2.82724 3.42237
upperback 1.01625 4.73779 2.85334
thorax -9.27504 2.18494 -0.0763293
lowerneck -15.5425 -10.1287 -8.26681
upperneck 19.4971 -13.6709 7.50563
head 9.8475 -6.16497 2.05927
rclavicle 1.43125e-014 7.95139e-015
rhumerus 2.75686 -7.97661 -38.2362
rradius 118.324
rwrist -7.20506
rhand -12.4503 -11.5192
rfingers 7.12502
rthumb 13.623 -41.0534
lclavicle 1.43125e-014 7.95139e-015
lhumerus 27.7824 -44.2496 66.5419
lradius 107.032
lwrist 33.6701
lhand -15.6295 -32.7651
lfingers 7.12502
lthumb 10.5576 -3.05026
rfemur -6.32284 -7.00142 14.8702
rtibia 15.4473
rfoot -21.6889 -11.729
rtoes -7.56888
lfemur -20.8818 -5.81899 -11.8964
ltibia 32.1045
lfoot -17.6262 4.66626
ltoes -55.0223
200
root -0.720738 18.6178 4.76344 5.14314 10.5724 -0.0598407
lowerback 18.2504 3.71979 2.78088
upperback 1.29645 5.65461 1.89384
thorax -8.73563 2.64077 -0.953821
lowerneck -15.4478 -10.3055 -7.90968
upperneck 20.0961 -13.9946 7.22198
head 10.0193 -6.30673 1.85529
rclavicle -2.38542e-014 1.03368e-014
rhumerus 12.6481 -8.2661 -37.8504
rradius 105.902
rwrist -7.86409
rhand -12.8102 -13.8518
rfingers 7.12502
rthumb 13.2761 -43.409
lclavicle -2.38542e-014 1.03368e-014
lhumerus 27.2971 -44.6006 67.0741
lradius 106.865
lwrist 33.5982
lhand -15.941 -33.1243
lfingers 7.12502
lthumb 10.2571 -3.39439
rfemur -6.73942 -5.73258 13.6297
rtibia 15.8284
rfoot -20.914 -10.8846
rtoes -7.66777
lfemur -19.7834 -4.04923 -13.1979
ltibia 31.5351
lfoot -17.7722 5.32609
ltoes -55.1342
